# xmcd
#
# Track frame offsets:
#	150
#	11962
#	25724
#	35491
#	45578
#	64290
#	75380
#	87158
#	100793
#	109943
#	120480
#	135827
#	148277
#	157933
#
# Disc length: 2246 seconds
#
# Revision: 2
# Processed by: cddbd v1.5.2PL0 Copyright (c) Steve Scherf et al.
# Submitted via: audiograbber 1.83.01
#
DISCID=ac08c40e
DTITLE=The Country Side Of Harmonica Sam - Open Letter To The Blues
DYEAR=2015
DGENRE=Country Rockabilly Honky-Tonk
TTITLE0=A Double Shot Of Heartache
TTITLE1=Forbidden Wine
TTITLE2=Farther Than My Eyes Can See
TTITLE3=It's Such a Pretty World Today
TTITLE4=I Regret It Every Day
TTITLE5=That's Why I Sing In A Honkey Tonk
TTITLE6=Open Letter To The Blues
TTITLE7=I'm Walkin' Slow
TTITLE8=We Have Strayed So Far Away
TTITLE9=Followed Closely By My Teardrops
TTITLE10=The Day I Let Him In
TTITLE11=The Storm Within My Heart
TTITLE12=Dying A Little Every Day Is Killing Me
TTITLE13=Im Down To My Last Cigarette
EXTD=
EXTT0=
EXTT1=
EXTT2=
EXTT3=
EXTT4=
EXTT5=
EXTT6=
EXTT7=
EXTT8=
EXTT9=
EXTT10=
EXTT11=
EXTT12=
EXTT13=
PLAYORDER=
